<?xml version="1.0" encoding="iso-8859-1"?>
<!-- Generator: Adobe Illustrator 16.0.0, SVG Export Plug-In . SVG Version: 6.00 Build 0)  -->
<!DOCTYPE svg PUBLIC "-//W3C//DTD SVG 1.1//EN" "http://www.w3.org/Graphics/SVG/1.1/DTD/svg11.dtd">
<svg version="1.1" id="Layer_2" xmlns="http://www.w3.org/2000/svg" xmlns:xlink="http://www.w3.org/1999/xlink" x="0px" y="0px"
	 width="512px" height="512px" viewBox="0 0 512 512" style="enable-background:new 0 0 512 512;" xml:space="preserve">
<path d="M471.25,21.184v19.91h-44.5v-19.91H85.25v19.91h-44.5v-19.91H21.184v469.632H40.75v-21.259h44.5v21.259h341.5v-21.259h44.5
	v21.259h19.566V21.184H471.25z M85.25,417.819h-44.5v-42.444h44.5V417.819z M85.25,323.638h-44.5v-42.443h44.5V323.638z
	 M85.25,229.457h-44.5v-42.443h44.5V229.457z M85.25,135.275h-44.5V92.832h44.5V135.275z M386.753,75.247v149.819H125.247V75.247
	H386.753z M125.247,436.753V286.934h261.506v149.819H125.247z M471.25,417.819h-44.5v-42.444h44.5V417.819z M471.25,323.638h-44.5
	v-42.443h44.5V323.638z M471.25,229.457h-44.5v-42.443h44.5V229.457z M471.25,135.275h-44.5V92.832h44.5V135.275z"/>
</svg>
